<?xml version="1.0" standalone="no"?><!DOCTYPE svg PUBLIC "-//W3C//DTD SVG 1.1//EN" "http://www.w3.org/Graphics/SVG/1.1/DTD/svg11.dtd"><svg t="1555501298866" class="icon" style="" viewBox="0 0 1024 1024" version="1.1" xmlns="http://www.w3.org/2000/svg" p-id="5639" xmlns:xlink="http://www.w3.org/1999/xlink" width="128" height="128"><defs><style type="text/css"></style></defs><path d="M367.494 499.897c0 28.536-23.164 51.607-51.744 51.607-28.535 0-51.7-23.07-51.7-51.607 0-28.535 23.165-51.7 51.7-51.7 28.58 0 51.744 23.166 51.744 51.7z m592.472-28.628c0-215.272-201.053-390.428-448.248-390.428-247.2 0-448.253 175.157-448.253 390.428 0 127.885 72.039 247.667 192.861 320.647v123.081c0 8.765 4.803 16.764 12.478 20.813 3.531 1.977 7.249 2.919 11.254 2.919 4.61 0 9.133-1.317 13.089-3.951l56.783-37.48a18.22 18.22 0 0 0 2.733-2.078l64.222-42.753c32.022 6.028 63.945 9.138 94.926 9.138 247.102-0.09 448.155-175.159 448.155-390.336zM291.732 757.642C178.449 693.794 110.88 586.722 110.88 471.175c0-189.092 179.816-342.97 400.833-342.97 221.023 0 400.838 153.877 400.838 342.97 0 189.095-179.866 342.97-400.833 342.97-30.887 0-62.905-3.393-95.114-10.076-6.12-1.41-12.62-0.093-17.986 3.487l-75.15 50.097c-1.036 0.562-2.54 1.884-2.54 1.884l-17.137 11.299v-92.569c0-8.567-4.667-16.389-12.06-20.625z m280.347-272.249c0 28.536-23.165 51.798-51.794 51.798-28.53 0-51.7-23.262-51.7-51.798 0-28.53 23.17-51.606 51.7-51.606 28.628 0 51.794 23.076 51.794 51.606z m202.186 0c0 28.536-23.169 51.798-51.7 51.798-28.536 0-51.704-23.262-51.704-51.798 0-28.53 23.168-51.606 51.704-51.606 28.531 0 51.7 23.076 51.7 51.606z m0 0" p-id="5640"></path></svg>