<?xml version="1.0" standalone="no"?><!DOCTYPE svg PUBLIC "-//W3C//DTD SVG 1.1//EN" "http://www.w3.org/Graphics/SVG/1.1/DTD/svg11.dtd"><svg t="1555501244315" class="icon" style="" viewBox="0 0 1489 1024" version="1.1" xmlns="http://www.w3.org/2000/svg" p-id="4171" xmlns:xlink="http://www.w3.org/1999/xlink" width="186.125" height="128"><defs><style type="text/css"></style></defs><path d="M162.909091 121.018182v41.890909h-74.472727c-27.927273 0-46.545455 18.618182-46.545455 46.545454v633.018182c0 27.927273 18.618182 46.545455 46.545455 46.545455h74.472727v41.890909h-69.818182c-51.2 0-93.090909-41.890909-93.090909-93.090909v-619.054546c0-51.2 41.890909-93.090909 93.090909-93.090909h69.818182z m1126.4 0h69.818182c51.2 0 93.090909 41.890909 93.090909 93.090909v619.054545c0 51.2-41.890909 93.090909-93.090909 93.090909h-69.818182v-41.890909h74.472727c27.927273 0 46.545455-18.618182 46.545455-46.545454v-633.018182c0-27.927273-18.618182-46.545455-46.545455-46.545455h-74.472727v-37.236363z" p-id="4172"></path><path d="M242.036364 851.781818l297.890909-260.654545 209.454545 195.490909 144.290909-121.018182 279.272728 265.309091-18.618182 55.854545-865.745455 23.272728-74.472727-41.890909v-102.4z" p-id="4173"></path><path d="M1093.818182 1010.036364h-777.309091c-65.163636 0-116.363636-51.2-116.363636-116.363637v-777.309091c0-65.163636 51.2-116.363636 116.363636-116.363636h777.309091c65.163636 0 116.363636 51.2 116.363636 116.363636v777.309091c0 60.509091-51.2 116.363636-116.363636 116.363637z m-777.309091-963.490909c-37.236364 0-69.818182 32.581818-69.818182 69.818181v777.309091c0 37.236364 32.581818 69.818182 69.818182 69.818182h777.309091c37.236364 0 69.818182-32.581818 69.818182-69.818182v-777.309091c0-37.236364-32.581818-69.818182-69.818182-69.818181h-777.309091z" p-id="4174"></path><path d="M926.254545 363.054545m-121.018181 0a121.018182 121.018182 0 1 0 242.036363 0 121.018182 121.018182 0 1 0-242.036363 0Z" p-id="4175"></path></svg>