<?xml version="1.0" standalone="no"?><!DOCTYPE svg PUBLIC "-//W3C//DTD SVG 1.1//EN" "http://www.w3.org/Graphics/SVG/1.1/DTD/svg11.dtd"><svg t="1555501458476" class="icon" style="" viewBox="0 0 1024 1024" version="1.1" xmlns="http://www.w3.org/2000/svg" p-id="6368" xmlns:xlink="http://www.w3.org/1999/xlink" width="128" height="128"><defs><style type="text/css"></style></defs><path d="M468.608 476.096H132.352a24 24 0 0 1-24-24V128c0-13.248 10.752-24 24-24h336.192c13.248 0 24 10.752 24 24v324.096a23.936 23.936 0 0 1-23.936 24z m-312.256-48h288.192V152H156.352v276.096zM890.496 211.392H526.592a24 24 0 0 1 0-48h363.904a24 24 0 0 1 0 48zM890.496 311.424H526.592a24 24 0 0 1 0-48h363.904a24 24 0 0 1 0 48zM890.496 413.44H526.592a24 24 0 0 1 0-48h363.904a24 24 0 0 1 0 48z" p-id="6369"></path><path d="M469.184 916.992H132.928a24 24 0 0 1-24-24V568.896c0-13.248 10.752-24 24-24H469.12c13.248 0 24 10.752 24 24v324.096a23.936 23.936 0 0 1-23.936 24z m-312.256-48h288.192V592.896H156.928v276.096zM891.072 652.224H527.168a24 24 0 0 1 0-48h363.904a24 24 0 0 1 0 48zM891.072 752.384H527.168a24 24 0 0 1 0-48h363.904a24 24 0 0 1 0 48zM891.072 854.4H527.168a24 24 0 0 1 0-48h363.904a24 24 0 0 1 0 48z" p-id="6370"></path></svg>