<?xml version="1.0" standalone="no"?><!DOCTYPE svg PUBLIC "-//W3C//DTD SVG 1.1//EN" "http://www.w3.org/Graphics/SVG/1.1/DTD/svg11.dtd"><svg t="1555500989776" class="icon" style="" viewBox="0 0 1024 1024" version="1.1" xmlns="http://www.w3.org/2000/svg" p-id="3243" xmlns:xlink="http://www.w3.org/1999/xlink" width="128" height="128"><defs><style type="text/css"></style></defs><path d="M426.962101 437.218263c-5.198869 0-10.252929-0.380121-15.023838-1.137778-4.733414-0.752485-8.897939-1.894141-12.728889-3.488323-6.45301-2.685414-11.319596-7.308929-14.877738-14.120081-2.623354-5.010101-4.627394-10.763636-6.323717-18.112647a924.395313 924.395313 0 0 1-2.479838-11.187717l-0.166788-0.74602c-0.574061-2.633697-1.136485-5.22602-1.722182-7.809293l-0.103434-0.464162-0.130586-0.469333a55.235232 55.235232 0 0 0-0.469333-1.511434l-0.051718-0.157738c-0.168081-0.515879-0.325818-1.035636-0.475798-1.556686a116.984242 116.984242 0 0 1-0.616727-2.287192 82.415192 82.415192 0 0 0-0.774464-2.844445l-2.014384-6.794343-5.919031-3.889132c-0.431838-0.283152-0.658101-0.64-0.740848-1.159757l-0.082748-0.484849c-0.116364-0.672323-0.215919-1.241212-0.202989-1.807515 0.098263-3.98998 0.230141-7.976081 0.363313-11.964767l0.100848-3.14699c0.03103-0.964525 0.629657-1.676929 1.607111-1.93293l0.967111-0.259878c1.38602-0.374949 2.923313-0.78998 4.393374-0.994263 8.11701-1.097697 16.800323-2.266505 25.583192-3.317657 9.41899-1.13002 19.440485-1.643313 32.499071-1.660121h0.182303c0.599919-0.012929 1.344646-0.015515 2.089373-0.015515 14.007596 0 28.313859 1.330424 42.515394 3.955071 8.058828 1.480404 15.928889 4.028768 22.874505 6.274586 5.094141 1.648485 9.010424 2.690586 12.697859 3.38101 1.988525 0.373657 4.04299 0.576646 6.116849 0.607676l-16.751192 43.249778c-1.762263 4.548525-3.567192 8.539798-5.515637 12.20396-4.348121 8.16097-10.056404 15.287596-16.956767 21.170424-4.089535 3.47798-9.078949 6.032808-15.697455 8.040727-7.045172 2.130747-14.757495 3.475394-23.584323 4.10893a116.522667 116.522667 0 0 1-8.579879 0.328404z m-17.382141-8.219152c1.826909 0.453818 3.532283 0.844283 5.259636 1.104162 4.567919 0.685253 9.179798 1.029172 13.798141 1.030464 8.118303 0 16.390465-1.086061 24.579879-3.232323 6.892606-1.807515 12.34101-4.688162 16.660687-8.808727 3.207758-3.056485 6.03798-6.760727 8.899232-11.650586 4.654545-7.950222 8.034263-16.302545 10.033132-24.815192 1.485576-6.349576 1.987232-12.002263 1.526949-17.282586l-0.920565-10.590384-9.442263-4.924767c-3.174141-1.684687-6.55903-2.526384-10.991192-3.532283l-0.969697-0.222384c-8.972929-2.06998-18.46303-3.037091-31.706505-3.234909l-0.654222-0.010343-3.25301 0.170666c-3.134061 0.162909-7.032242 0.369778-10.87095 0.68396-7.698101 0.625778-14.617859 1.759677-21.143273 3.466343l-11.364848 3.056485-2.698344 11.412687c-0.358141 1.543758-0.54303 3.051313-0.766707 5.012687l-0.00905 0.100848c-0.054303 0.491313-0.113778 0.981333-0.175838 1.472647a59.485091 59.485091 0 0 0-0.190061 13.115475c0.612848 6.184081 1.559273 14.337293 3.498667 22.472404 1.493333 6.279758 3.664162 11.487677 6.636606 15.915959 1.559273 2.322101 3.313778 4.167111 5.365656 5.641051l5.070869 3.648646h3.827071z m193.631676 7.700687c-8.204929 0-15.727192-0.687838-22.979232-2.095838-7.06198-1.375677-13.181414-3.50901-18.69705-6.51895-7.876525-4.300283-14.385131-10.768808-19.330586-19.232323a150.301737 150.301737 0 0 1-8.941899-17.948445l-17.860526-42.788202c4.291232-0.089212 8.751838-0.885657 13.609374-2.422949 2.338909-0.738263 4.628687-1.546343 6.84994-2.327273 2.081616-0.730505 4.221414-1.484283 6.296565-2.156606 7.699394-2.488889 16.201697-4.269253 26.748121-5.602263 9.856-1.245091 19.938263-1.851475 30.806627-1.851474 4.445091 0 9.100929 0.104727 13.829171 0.316767l0.702061 0.03491c7.361939 0.329697 14.976 0.669737 22.515071 1.193373 9.353051 0.650343 18.593616 2.033778 28.863353 3.647354 0.566303 0.08404 1.10804 0.231434 1.643313 0.367192l0.338748 0.090505c0.848162 0.218505 1.413172 0.60897 1.489454 1.834666 0.036202 0.629657 0.082747 1.292929 0.138344 1.952324l0.032323 0.431838c0.112485 1.410586 0.21204 2.71903 0.250828 4.098586 0.073697 2.483717 0.086626 4.941576 0.086627 7.576566l-2.876768-5.222142-4.102465 14.129131-0.038788 0.029738-1.922585 6.725818-7.024485 24.270869 1.230868-0.690425c-1.556687 6.328889-3.406869 12.815515-5.944888 19.003475-1.728646 4.218828-3.679677 7.670949-5.961697 10.558061-3.660283 4.650667-8.316121 7.630869-15.111758 9.671111-5.257051 1.568323-11.093333 2.474667-17.825616 2.765576-2.310465 0.104727-4.602828 0.15903-6.812445 0.15903z m-9.086707-94.152404c-2.86901 0.104727-6.438788 0.240485-9.912889 0.462869-5.717333 0.369778-11.70101 1.186909-18.292363 2.49406-3.895596 0.769293-8.490667 1.772606-13.096081 3.357738l-12.025535 4.145131-0.980041 12.686222a42.855434 42.855434 0 0 0-0.116363 2.234182c-0.121535 5.003636 0.722747 9.801697 2.036363 15.460848 2.66602 11.535515 7.297293 21.319111 14.158869 29.89899 5.644929 7.043879 12.767677 11.525172 21.184646 13.310707 9.226343 1.961374 17.638141 2.914263 25.738344 2.914263l0.899879-0.003879c5.282909-0.046545 11.485091-0.318061 17.683394-1.996283 5.595798-1.519192 9.430626-3.507717 12.450909-6.443959 2.779798-2.697051 4.980364-6.222869 6.705131-10.764929 3.528404-9.284525 5.484606-19.472808 5.819475-30.280405l0.016808-0.623191c0.099556-3.585293-0.050424-7.14602-0.186182-10.59297l-0.068525-1.669172a40.437657 40.437657 0 0 0-0.230142-3.285333l-0.302545-2.691879-1.038222-2.503111c-0.118949-0.292202-0.241778-0.581818-0.368485-0.868849l-3.705536-8.35103-8.807434-2.45398c-10.258101-2.857374-20.490343-3.843879-33.676929-4.513616l-0.853334-0.041374-3.033212 0.11895z m88.472566 258.307879l-120.551434 219.406222-17.874748-52.271838 32.998142-65.971718-66.033778-65.965252-66.049293 65.965252 33.034343 65.971718-21.295838 53.509171-117.189818-220.640969S89.936808 732.947394 89.936808 863.70004c0 36.121859 14.885495 69.484606 51.339636 69.484606h741.280324c36.231758 0 51.506424-33.078303 51.506424-68.97907 0.001293-122.789495-251.465697-263.350303-251.465697-263.350303z m45.78004-270.245495l-0.160323-10.308525-8.656161-5.801374a64.126707 64.126707 0 0 0-3.131475-2.000162C698.715152 160.35297 699.911111 70.587475 522.232889 97.141657c-62.301091 9.289697-130.297535-9.901253-169.007838 18.18505-48.680081 45.487838-52.119273 113.758384-38.904243 193.879919a89.718949 89.718949 0 0 0-8.781576 5.310061l-8.663919 5.800081-0.156444 10.307232c-0.448646 26.687354 2.919434 49.211475 10.171474 66.455273 6.595232 15.696162 16.310303 27.367434 29.321051 34.390626 15.476364 52.283475 37.713455 91.535515 65.538586 119.762747 30.333414 30.791111 66.806949 48.283152 108.090182 55.191273l3.684848 0.585697 3.712-0.749899c45.706343-9.580606 82.216081-27.831596 111.286303-58.334384 26.993778-28.249212 47.110465-66.390626 61.897697-117.333333 12.523313-7.228768 21.911273-19.002182 28.223354-34.558707 6.968889-17.144242 10.16501-39.267556 9.733171-65.423515z m-47.100121 50.540606c-3.541333 8.662626-8.382061 14.364444-14.492444 16.479677l-10.070627 3.511596-2.75006 10.181818c-13.234424 48.862384-30.94497 84.292525-54.649536 109.119353-22.397414 23.407192-50.799192 37.859556-86.540929 45.924849-31.43499-5.893172-59.160566-19.571071-82.188929-42.943354-24.716929-25.121616-44.441859-61.579636-58.145616-111.656081l-2.903919-10.656323-10.665374-3.281454c-6.248727-1.892848-11.187717-7.483475-14.784647-16.121536-3.602101-8.502303-5.800081-19.401697-6.707717-32.345212 9.769374-1.467475 20.712727-4.240808 26.109414-0.71499 0.590869-1.832081 1.179152-3.872323 1.828202-6.217697l0.288324 0.041374 0.793858-4.260202c2.946586-11.633778 6.259071-84.441212 9.226344-96.169374 1.163636-3.426263 1.582545-7.312808 3.829656-10.066747 14.308848 19.405576 122.596848 21.608727 185.457778-21.805253l-11.741091 31.672889 11.940202 2.342788 13.421899-21.333333-1.68598 14.943676 12.717253 1.669172 7.89204-24.530747c15.578505 8.882424 32.822303 20.773495 48.210748 14.308848 5.118707 11.516121 9.071192 81.664 11.623434 95.203556l3.322828 17.362747 5.778101-0.360727 2.706101 9.05697c6.811152-0.824889 12.76897-0.967111 18.647919-1.066667-0.883071 12.621576-3.042263 23.272727-6.467232 31.710384z" p-id="3244"></path></svg>