<?xml version="1.0" standalone="no"?><!DOCTYPE svg PUBLIC "-//W3C//DTD SVG 1.1//EN" "http://www.w3.org/Graphics/SVG/1.1/DTD/svg11.dtd"><svg t="1555501030851" class="icon" style="" viewBox="0 0 1024 1024" version="1.1" xmlns="http://www.w3.org/2000/svg" p-id="3440" xmlns:xlink="http://www.w3.org/1999/xlink" width="128" height="128"><defs><style type="text/css"></style></defs><path d="M390.4 428.8c0 12.8 6.4 19.2 19.2 19.2h396.8c12.8 0 19.2-6.4 19.2-19.2 0-12.8-6.4-19.2-19.2-19.2H409.6c-12.8 0-19.2 6.4-19.2 19.2zM640 556.8H409.6c-12.8 0-19.2 6.4-19.2 19.2 0 12.8 6.4 19.2 32 19.2h236.8s6.4-6.4 6.4-19.2c0-12.8-12.8-19.2-25.6-19.2z" p-id="3441"></path><path d="M774.4 723.2c0-12.8-6.4-19.2-19.2-19.2H460.8c6.4 12.8 12.8 25.6 12.8 44.8h275.2c12.8-6.4 25.6-12.8 25.6-25.6z" p-id="3442"></path><path d="M243.2 953.6l-6.4-19.2s-25.6-64-44.8-121.6c-102.4 38.4-115.2 115.2-115.2 134.4H64c0-25.6 6.4-115.2 128-153.6h6.4v6.4c12.8 38.4 32 83.2 38.4 108.8l19.2-19.2-19.2-44.8 38.4-44.8 32 44.8-19.2 51.2 6.4 19.2c12.8-25.6 32-76.8 44.8-108.8v-6.4l6.4 6.4c128 51.2 128 147.2 128 153.6h-12.8c0-6.4 0-89.6-108.8-134.4-12.8 38.4-44.8 115.2-44.8 121.6l-6.4 19.2-19.2-64 12.8-38.4-19.2-32-19.2 19.2 19.2 38.4-32 64z" p-id="3443"></path><path d="M268.8 588.8c-57.6 0-102.4 44.8-102.4 102.4 0 57.6 44.8 102.4 102.4 102.4 57.6 0 102.4-44.8 102.4-102.4 0-57.6-44.8-102.4-102.4-102.4z m89.6 102.4c0 51.2-38.4 89.6-89.6 89.6-51.2 0-89.6-38.4-89.6-89.6v-12.8h-6.4v-6.4h6.4c12.8-32 44.8-57.6 83.2-57.6 38.4 0 70.4 25.6 83.2 57.6h6.4v12.8c6.4-6.4 6.4 0 6.4 6.4z" p-id="3444"></path><path d="M185.6 684.8v12.8c0 6.4 6.4 6.4 6.4 12.8s6.4 6.4 6.4 6.4h32c6.4 0 6.4 0 6.4-6.4 12.8 0 12.8-6.4 19.2-12.8 0 0 0-6.4 6.4-6.4l12.8-25.6h-6.4-6.4c-6.4 0-6.4 0-12.8-6.4H192h-6.4v25.6z m6.4-6.4v-12.8H249.6V684.8c0 6.4 0 12.8-6.4 12.8l-6.4 6.4s-6.4 6.4-12.8 6.4h-12.8-6.4V704s0-6.4-6.4-6.4v-12.8c-6.4 0-6.4 0-6.4-6.4z" p-id="3445"></path><path d="M358.4 672v-6.4h-32-25.6c-6.4 0-12.8 0-12.8 6.4h-6.4-6.4-6.4l12.8 25.6c0 6.4 6.4 6.4 6.4 12.8s6.4 6.4 12.8 12.8c6.4 0 6.4 0 12.8 6.4h32c6.4 0 6.4 0 6.4-6.4 0 0 0-6.4 6.4-6.4 0-6.4 0-6.4 6.4-12.8l6.4-12.8-12.8-19.2z m-12.8 12.8c0 6.4 0 12.8-6.4 19.2 0 0 0 6.4-6.4 6.4 0 0-6.4 0-6.4 6.4h-25.6c-6.4 0-6.4-6.4-12.8-6.4-6.4-6.4-6.4-12.8-6.4-19.2v-12.8h57.6v6.4h6.4z" p-id="3446"></path><path d="M960 320l-224-243.2c-6.4-6.4-12.8-12.8-19.2-12.8H326.4c-25.6 0-44.8 12.8-64 25.6-12.8 19.2-6.4 32-6.4 57.6v422.4c6.4 0-6.4 0 0 0h32V160c0-25.6 19.2-51.2 44.8-51.2h358.4v160c0 19.2 6.4 38.4 25.6 57.6 12.8 12.8 32 25.6 57.6 25.6h153.6V832c0 25.6-25.6 57.6-57.6 57.6H505.6c12.8 6.4 6.4 12.8 6.4 32h377.6c25.6 0 44.8-6.4 64-25.6 19.2-19.2 6.4-38.4 6.4-64V326.4c0-6.4 6.4 0 0-6.4z m-185.6 0c-12.8 0-38.4-12.8-38.4-12.8-6.4-6.4-12.8-25.6-12.8-38.4V128L896 320h-121.6z" p-id="3447"></path></svg>